# xmcd
#
# Track frame offsets:
# 150
# 18119
# 37848
# 42798
# 50973
# 74079
# 81606
# 105978
# 131592
# 152786
# 161966
# 166675
# 173208
# 191107
# 205683
# 225306
# 243134
# 250661
# 267316
# 288091
# 302287
# 316877
# 332501
#
# Disc length: 4772 seconds
#
# Revision: 0
# Processed by: cddbd v1.5.2PL0 Copyright (c) Steve Scherf et al.
# Submitted via: Audion 3.0.2 (http://www.panic.com/audion/)
#
DISCID=2e12a217
DTITLE=eminem - freestyles
DYEAR=1900
DGENRE=
TTITLE0=f 1
TTITLE1=f 2
TTITLE2=f 3
TTITLE3=f 4
TTITLE4=f 5
TTITLE5=f 6
TTITLE6=f 7
TTITLE7=f 8
TTITLE8=f 9
TTITLE9=f 10
TTITLE10=f 11
TTITLE11=f 12
TTITLE12=f 13
TTITLE13=f14
TTITLE14=f 15
TTITLE15=f 16
TTITLE16=f 17 
TTITLE17=f 18
TTITLE18=f 19
TTITLE19=f 20
TTITLE20=f 21
TTITLE21=f 22
TTITLE22=f 23
EXTD=
EXTT0=
EXTT1=
EXTT2=
EXTT3=
EXTT4=
EXTT5=
EXTT6=
EXTT7=
EXTT8=
EXTT9=
EXTT10=
EXTT11=
EXTT12=
EXTT13=
EXTT14=
EXTT15=
EXTT16=
EXTT17=
EXTT18=
EXTT19=
EXTT20=
EXTT21=
EXTT22=
PLAYORDER=
